<svg
  xmlns="http://www.w3.org/2000/svg"
  viewBox="0 0 560 560"
  fill="none"
  shape-rendering="auto"
  width="512"
  height="512"
>
  <metadata
    xmlns:rdf="http://www.w3.org/1999/02/22-rdf-syntax-ns#"
    xmlns:xsi="http://www.w3.org/2001/XMLSchema-instance"
    xmlns:dc="http://purl.org/dc/elements/1.1/"
    xmlns:dcterms="http://purl.org/dc/terms/"
  >
    <rdf:RDF
      ><rdf:Description
        ><dc:title>Notionists</dc:title><dc:creator>Zoish</dc:creator
        ><dc:source xsi:type="dcterms:URI"
          >https://heyzoish.gumroad.com/l/notionists</dc:source
        ><dcterms:license xsi:type="dcterms:URI"
          >https://creativecommons.org/publicdomain/zero/1.0/</dcterms:license
        ><dc:rights
          >Remix of „Notionists” (https://heyzoish.gumroad.com/l/notionists) by
          „Zoish”, licensed under „CC0 1.0”
          (https://creativecommons.org/publicdomain/zero/1.0/)</dc:rights
        ></rdf:Description
      ></rdf:RDF
    >
  </metadata>
  <mask id="viewboxMask">
    <rect width="560" height="560" rx="0" ry="0" x="0" y="0" fill="#fff" />
  </mask>
  <g mask="url(#viewboxMask)">
    <rect fill="#ffffff" width="560" height="560" x="0" y="0" />
    <g transform="translate(136 328)">
      <path
        d="M83 85.8c-2.4 17.7 16.1 32.5 32.4 26-4.3-15.8-20.8-17.4-32.4-26Z"
        fill="#fff"
      />
      <path
        fill-rule="evenodd"
        clip-rule="evenodd"
        d="M72.3 102.8c12.4 23.4 36 29.9 61.7 16.3 10.5-6.4 14.9-16.6 18.7-26.1a27.3 27.3 0 0 0-1.5-24.2C137.2 43 120 42.3 99.3 46.2c-22.5 4.3-37.8 36.4-27 56.6Zm43.1 9c-16.3 6.5-34.8-8.3-32.4-26 3.7 2.7 7.8 4.7 11.9 6.7 8.9 4.3 17.6 8.5 20.5 19.3Z"
        fill="#000"
      />
      <path
        d="M67 37c8.2 3.7 7.7 9.3 4.2 15-2.6 4.5-6.5 7.2-11.7 4-4.8-3-3.7-7.1-1-11 2.2-3 3-7.3 8.5-8Z"
        fill="#000"
      />
    </g>
    <g transform="translate(246 125)">
      <path
        d="M74.2 188c5.5-3.8 9.7-9.4 11.8-15.9a23 23 0 0 0-4.4-22.8c-5.3-6-12.4-3.7-19-1.7-4.2 1.3-9.5 5.3-12.2-1.2-2.4-5.6 1.8-10 6-12.7a28 28 0 0 1 26.8-2.8c11.9 4.7 16.4 14.5 18.1 25.8 6.7 44.3-31 54.4-60.7 52.5-2.1-.2-4.2-1-6-2.2-3.3-2.2-8.6-3.8-7.1-9.1 1.6-6 6.7-5 11.6-4 12 2.3 23.5.2 35-5.8Z"
        fill="#000"
      />
    </g>
    <g transform="translate(-45 137)">
      <path
        d="M215.1 76.6c5-12 9-29.4 24.1-22.5 20.7 9.4 13.9 30.7 9.7 47.4-1.6 6.3-14.5 15.9-18.3 14.3-16.3-6.8-19.2-21.7-15.5-39.2ZM442 113.4c-8.6 7.5-17 7.6-22.2-1.5-9-16-8.6-32.8 3.3-47.2 2.5-3 13.8-3.6 16.3-1 14 15 14.6 31.8 2.6 49.7Z"
        fill="#000"
      />
    </g>
    <g transform="translate(-45 137)"></g>
    <g transform="translate(119 114)">
      <path
        d="M131.2 43.2c-5.6 16.8-6.6 15.4-23 11.6-26.2-6-52.7-19.2-80.3-4.3-2 1.1-5 1-7.6.8-3.6-.2-8.2 1.3-10.1-3.3-2.1-5 1.5-8.3 5.3-10.3C35.2 27.7 53 13.4 77.9 16c12.8 1.3 26-2.8 39.3-2.4 18.8.7 22.4 5.7 16 23.9l-2 5.8ZM298.7 21.8c9.6 6.6 12.5 16.8 18.3 25a7 7 0 0 1-.6 9.4c-2.4 2.7-5.4 2.8-8.1 1.2-19.1-11-38.9-6.4-58-1.2-10.2 2.7-14.6-.8-17.2-9.2-1.7-5.7-2.9-11.5-3.6-17.4-1.3-9.8 6.9-11.9 13-12.2 18.5-.9 37.4-4.5 56.2 4.4Z"
        fill="#000"
      />
    </g>
  </g>
</svg>
